<mxfile host="Electron" agent="Mozilla/5.0 (Windows NT 10.0; Win64; x64) AppleWebKit/537.36 (KHTML, like Gecko) draw.io/27.0.9 Chrome/134.0.6998.205 Electron/35.4.0 Safari/537.36" version="27.0.9">
  <diagram name="PÃ¡gina-1" id="9_9RohxBQFwLKHzVKFe6">
    <mxGraphModel dx="2316" dy="894" grid="1" gridSize="10" guides="1" tooltips="1" connect="1" arrows="1" fold="1" page="1" pageScale="1" pageWidth="827" pageHeight="1169" math="0" shadow="0">
      <root>
        <mxCell id="0" />
        <mxCell id="1" parent="0" />
        <mxCell id="C5ZI_fkeVRTLdhSNKJ9w-19" value="&lt;p&gt;&amp;nbsp; &amp;nbsp;SE BASAN EN :&lt;/p&gt;" style="rounded=0;whiteSpace=wrap;html=1;fillColor=none;align=left;strokeColor=default;dashed=1;dashPattern=8 8;" parent="1" vertex="1">
          <mxGeometry x="560" y="200" width="170" height="370" as="geometry" />
        </mxCell>
        <mxCell id="C5ZI_fkeVRTLdhSNKJ9w-11" style="edgeStyle=orthogonalEdgeStyle;rounded=0;orthogonalLoop=1;jettySize=auto;html=1;entryX=0;entryY=0.5;entryDx=0;entryDy=0;" parent="1" source="C5ZI_fkeVRTLdhSNKJ9w-1" target="C5ZI_fkeVRTLdhSNKJ9w-3" edge="1">
          <mxGeometry relative="1" as="geometry" />
        </mxCell>
        <mxCell id="C5ZI_fkeVRTLdhSNKJ9w-12" style="edgeStyle=orthogonalEdgeStyle;rounded=0;orthogonalLoop=1;jettySize=auto;html=1;entryX=0;entryY=0.5;entryDx=0;entryDy=0;" parent="1" source="C5ZI_fkeVRTLdhSNKJ9w-1" target="C5ZI_fkeVRTLdhSNKJ9w-2" edge="1">
          <mxGeometry relative="1" as="geometry" />
        </mxCell>
        <mxCell id="C5ZI_fkeVRTLdhSNKJ9w-1" value="No supervisado" style="rounded=0;whiteSpace=wrap;html=1;" parent="1" vertex="1">
          <mxGeometry x="160" y="345" width="120" height="60" as="geometry" />
        </mxCell>
        <mxCell id="C5ZI_fkeVRTLdhSNKJ9w-16" style="edgeStyle=orthogonalEdgeStyle;rounded=0;orthogonalLoop=1;jettySize=auto;html=1;entryX=0;entryY=0.5;entryDx=0;entryDy=0;" parent="1" source="C5ZI_fkeVRTLdhSNKJ9w-2" target="C5ZI_fkeVRTLdhSNKJ9w-15" edge="1">
          <mxGeometry relative="1" as="geometry" />
        </mxCell>
        <mxCell id="C5ZI_fkeVRTLdhSNKJ9w-2" value="reduccion de dimencionaliades" style="rounded=1;whiteSpace=wrap;html=1;" parent="1" vertex="1">
          <mxGeometry x="420" y="270" width="120" height="60" as="geometry" />
        </mxCell>
        <mxCell id="C5ZI_fkeVRTLdhSNKJ9w-13" style="edgeStyle=orthogonalEdgeStyle;rounded=0;orthogonalLoop=1;jettySize=auto;html=1;entryX=0;entryY=0.5;entryDx=0;entryDy=0;" parent="1" source="C5ZI_fkeVRTLdhSNKJ9w-3" target="C5ZI_fkeVRTLdhSNKJ9w-9" edge="1">
          <mxGeometry relative="1" as="geometry" />
        </mxCell>
        <mxCell id="C5ZI_fkeVRTLdhSNKJ9w-3" value="Agrupar/cluster" style="rounded=1;whiteSpace=wrap;html=1;" parent="1" vertex="1">
          <mxGeometry x="420" y="450" width="120" height="60" as="geometry" />
        </mxCell>
        <mxCell id="C5ZI_fkeVRTLdhSNKJ9w-14" style="edgeStyle=orthogonalEdgeStyle;rounded=0;orthogonalLoop=1;jettySize=auto;html=1;" parent="1" source="C5ZI_fkeVRTLdhSNKJ9w-9" target="C5ZI_fkeVRTLdhSNKJ9w-10" edge="1">
          <mxGeometry relative="1" as="geometry" />
        </mxCell>
        <mxCell id="C5ZI_fkeVRTLdhSNKJ9w-9" value="Distancias&lt;br&gt;-cerca&lt;div&gt;-lejos&amp;nbsp;&lt;br&gt;&lt;br&gt;Metodos&lt;br&gt;Mahathan&lt;/div&gt;&lt;div&gt;Euclideana&lt;/div&gt;&lt;div&gt;etc&amp;nbsp;&lt;/div&gt;" style="rounded=1;whiteSpace=wrap;html=1;" parent="1" vertex="1">
          <mxGeometry x="580" y="425" width="110" height="110" as="geometry" />
        </mxCell>
        <mxCell id="C5ZI_fkeVRTLdhSNKJ9w-10" value="-Dendodrama -&amp;gt; cuantos cluster pedir&amp;nbsp;&lt;div&gt;-Kmeans&lt;/div&gt;&lt;div&gt;- dbascan&lt;/div&gt;&lt;div&gt;&lt;span style=&quot;background-color: transparent; color: light-dark(rgb(0, 0, 0), rgb(255, 255, 255));&quot;&gt;&lt;br&gt;&lt;/span&gt;&lt;/div&gt;&lt;div&gt;&lt;span style=&quot;background-color: transparent; color: light-dark(rgb(0, 0, 0), rgb(255, 255, 255));&quot;&gt;Tecnica del codo}&lt;/span&gt;&lt;/div&gt;&lt;div&gt;&lt;strong style=&quot;background-color: transparent; color: light-dark(rgb(0, 0, 0), rgb(255, 255, 255));&quot;&gt;Elbow Method&lt;/strong&gt;&lt;/div&gt;" style="rounded=0;whiteSpace=wrap;html=1;" parent="1" vertex="1">
          <mxGeometry x="730" y="420" width="200" height="120" as="geometry" />
        </mxCell>
        <mxCell id="C5ZI_fkeVRTLdhSNKJ9w-18" style="edgeStyle=orthogonalEdgeStyle;rounded=0;orthogonalLoop=1;jettySize=auto;html=1;entryX=0;entryY=0.5;entryDx=0;entryDy=0;" parent="1" source="C5ZI_fkeVRTLdhSNKJ9w-15" target="C5ZI_fkeVRTLdhSNKJ9w-17" edge="1">
          <mxGeometry relative="1" as="geometry" />
        </mxCell>
        <mxCell id="C5ZI_fkeVRTLdhSNKJ9w-15" value="Basado en varianza&amp;nbsp;" style="rounded=1;whiteSpace=wrap;html=1;" parent="1" vertex="1">
          <mxGeometry x="580" y="270" width="120" height="60" as="geometry" />
        </mxCell>
        <mxCell id="C5ZI_fkeVRTLdhSNKJ9w-17" value="&lt;div&gt;Lineales:&lt;/div&gt;-LDA&lt;div&gt;-PCA&lt;/div&gt;&lt;div&gt;No lineales:&lt;/div&gt;&lt;div&gt;-ISOMAP&lt;/div&gt;&lt;div&gt;-&lt;span style=&quot;color: rgb(78, 201, 176); background-color: rgb(31, 31, 31); font-family: Consolas, &amp;quot;Courier New&amp;quot;, monospace; font-size: 14px; white-space: pre;&quot;&gt;TSNE&lt;/span&gt;&lt;/div&gt;" style="rounded=0;whiteSpace=wrap;html=1;" parent="1" vertex="1">
          <mxGeometry x="750" y="255" width="120" height="90" as="geometry" />
        </mxCell>
        <mxCell id="C5ZI_fkeVRTLdhSNKJ9w-20" value="&lt;p&gt;&amp;nbsp; PROPOCITO :&lt;/p&gt;" style="rounded=0;whiteSpace=wrap;html=1;fillColor=none;align=left;strokeColor=default;dashed=1;dashPattern=8 8;" parent="1" vertex="1">
          <mxGeometry x="390" y="200" width="170" height="370" as="geometry" />
        </mxCell>
        <mxCell id="C5ZI_fkeVRTLdhSNKJ9w-21" value="&lt;p&gt;&amp;nbsp; METODOS :&lt;/p&gt;" style="rounded=0;whiteSpace=wrap;html=1;fillColor=none;align=left;strokeColor=default;dashed=1;dashPattern=8 8;" parent="1" vertex="1">
          <mxGeometry x="730" y="200" width="240" height="370" as="geometry" />
        </mxCell>
        <mxCell id="Dy7Q5Xgi4TRUnLwvuhuH-5" style="edgeStyle=orthogonalEdgeStyle;rounded=0;orthogonalLoop=1;jettySize=auto;html=1;entryX=0;entryY=0.5;entryDx=0;entryDy=0;" parent="1" source="Dy7Q5Xgi4TRUnLwvuhuH-1" target="Dy7Q5Xgi4TRUnLwvuhuH-4" edge="1">
          <mxGeometry relative="1" as="geometry" />
        </mxCell>
        <mxCell id="Dy7Q5Xgi4TRUnLwvuhuH-6" style="edgeStyle=orthogonalEdgeStyle;rounded=0;orthogonalLoop=1;jettySize=auto;html=1;entryX=0;entryY=0.5;entryDx=0;entryDy=0;" parent="1" source="Dy7Q5Xgi4TRUnLwvuhuH-1" target="C5ZI_fkeVRTLdhSNKJ9w-1" edge="1">
          <mxGeometry relative="1" as="geometry" />
        </mxCell>
        <mxCell id="Dy7Q5Xgi4TRUnLwvuhuH-1" value="Machine Learning&amp;nbsp;" style="rounded=0;whiteSpace=wrap;html=1;" parent="1" vertex="1">
          <mxGeometry x="-80" y="490" width="120" height="60" as="geometry" />
        </mxCell>
        <mxCell id="Dy7Q5Xgi4TRUnLwvuhuH-2" value="-baggin (varianza: filaspor columnas )&lt;div&gt;-boosting (sesgos: Columnas)&lt;/div&gt;&lt;div&gt;-Voting (aprenzaje por refuerzo)&lt;/div&gt;&lt;div&gt;&lt;br&gt;&lt;/div&gt;&lt;div&gt;&lt;br&gt;&lt;/div&gt;" style="whiteSpace=wrap;html=1;rounded=0;" parent="1" vertex="1">
          <mxGeometry x="150" y="830" width="120" height="120" as="geometry" />
        </mxCell>
        <mxCell id="Dy7Q5Xgi4TRUnLwvuhuH-7" style="edgeStyle=orthogonalEdgeStyle;rounded=0;orthogonalLoop=1;jettySize=auto;html=1;" parent="1" source="Dy7Q5Xgi4TRUnLwvuhuH-4" target="Dy7Q5Xgi4TRUnLwvuhuH-2" edge="1">
          <mxGeometry relative="1" as="geometry" />
        </mxCell>
        <mxCell id="M4qcc3BLTqc3jIXUVcVV-9" style="edgeStyle=orthogonalEdgeStyle;rounded=0;orthogonalLoop=1;jettySize=auto;html=1;" parent="1" source="Dy7Q5Xgi4TRUnLwvuhuH-4" target="M4qcc3BLTqc3jIXUVcVV-5" edge="1">
          <mxGeometry relative="1" as="geometry" />
        </mxCell>
        <mxCell id="M4qcc3BLTqc3jIXUVcVV-10" style="edgeStyle=orthogonalEdgeStyle;rounded=0;orthogonalLoop=1;jettySize=auto;html=1;entryX=0;entryY=0.5;entryDx=0;entryDy=0;" parent="1" source="Dy7Q5Xgi4TRUnLwvuhuH-4" target="M4qcc3BLTqc3jIXUVcVV-6" edge="1">
          <mxGeometry relative="1" as="geometry" />
        </mxCell>
        <mxCell id="Dy7Q5Xgi4TRUnLwvuhuH-4" value="Supervisado" style="rounded=0;whiteSpace=wrap;html=1;" parent="1" vertex="1">
          <mxGeometry x="160" y="670" width="120" height="60" as="geometry" />
        </mxCell>
        <mxCell id="Dy7Q5Xgi4TRUnLwvuhuH-8" value="&lt;p&gt;&amp;nbsp; &amp;nbsp;SE BASAN EN :&lt;/p&gt;" style="rounded=0;whiteSpace=wrap;html=1;fillColor=none;align=left;strokeColor=default;dashed=1;dashPattern=8 8;" parent="1" vertex="1">
          <mxGeometry x="560" y="610" width="170" height="370" as="geometry" />
        </mxCell>
        <mxCell id="Dy7Q5Xgi4TRUnLwvuhuH-9" value="&lt;p&gt;&amp;nbsp; PROPOCITO :&lt;/p&gt;" style="rounded=0;whiteSpace=wrap;html=1;fillColor=none;align=left;strokeColor=default;dashed=1;dashPattern=8 8;" parent="1" vertex="1">
          <mxGeometry x="390" y="610" width="170" height="370" as="geometry" />
        </mxCell>
        <mxCell id="Dy7Q5Xgi4TRUnLwvuhuH-10" value="&lt;p&gt;&amp;nbsp; METODOS :&lt;/p&gt;" style="rounded=0;whiteSpace=wrap;html=1;fillColor=none;align=left;strokeColor=default;dashed=1;dashPattern=8 8;" parent="1" vertex="1">
          <mxGeometry x="690" y="600" width="980" height="720" as="geometry" />
        </mxCell>
        <mxCell id="M4qcc3BLTqc3jIXUVcVV-3" value="" style="edgeStyle=orthogonalEdgeStyle;rounded=0;orthogonalLoop=1;jettySize=auto;html=1;" parent="1" source="M4qcc3BLTqc3jIXUVcVV-1" target="M4qcc3BLTqc3jIXUVcVV-2" edge="1">
          <mxGeometry relative="1" as="geometry" />
        </mxCell>
        <mxCell id="M4qcc3BLTqc3jIXUVcVV-1" value="Deep Learning" style="rounded=0;whiteSpace=wrap;html=1;" parent="1" vertex="1">
          <mxGeometry x="-60" y="1510" width="120" height="60" as="geometry" />
        </mxCell>
        <mxCell id="M4qcc3BLTqc3jIXUVcVV-2" value="RNN&lt;br&gt;-Series de tiempo&amp;nbsp;&amp;nbsp;&lt;div&gt;-datos secuenciales&amp;nbsp;&lt;/div&gt;" style="whiteSpace=wrap;html=1;rounded=0;" parent="1" vertex="1">
          <mxGeometry x="140" y="1510" width="120" height="60" as="geometry" />
        </mxCell>
        <mxCell id="M4qcc3BLTqc3jIXUVcVV-15" style="edgeStyle=orthogonalEdgeStyle;rounded=0;orthogonalLoop=1;jettySize=auto;html=1;entryX=0;entryY=0.5;entryDx=0;entryDy=0;" parent="1" source="M4qcc3BLTqc3jIXUVcVV-5" target="M4qcc3BLTqc3jIXUVcVV-12" edge="1">
          <mxGeometry relative="1" as="geometry" />
        </mxCell>
        <mxCell id="M4qcc3BLTqc3jIXUVcVV-16" style="edgeStyle=orthogonalEdgeStyle;rounded=0;orthogonalLoop=1;jettySize=auto;html=1;entryX=0;entryY=0.5;entryDx=0;entryDy=0;fillColor=#008a00;strokeColor=#005700;" parent="1" source="M4qcc3BLTqc3jIXUVcVV-5" target="M4qcc3BLTqc3jIXUVcVV-13" edge="1">
          <mxGeometry relative="1" as="geometry" />
        </mxCell>
        <mxCell id="M4qcc3BLTqc3jIXUVcVV-32" style="edgeStyle=orthogonalEdgeStyle;rounded=0;orthogonalLoop=1;jettySize=auto;html=1;entryX=0.5;entryY=1;entryDx=0;entryDy=0;" parent="1" source="M4qcc3BLTqc3jIXUVcVV-5" target="M4qcc3BLTqc3jIXUVcVV-27" edge="1">
          <mxGeometry relative="1" as="geometry" />
        </mxCell>
        <mxCell id="M4qcc3BLTqc3jIXUVcVV-5" value="Regresion&amp;nbsp;" style="rounded=0;whiteSpace=wrap;html=1;" parent="1" vertex="1">
          <mxGeometry x="410" y="645" width="120" height="110" as="geometry" />
        </mxCell>
        <mxCell id="M4qcc3BLTqc3jIXUVcVV-14" style="edgeStyle=orthogonalEdgeStyle;rounded=0;orthogonalLoop=1;jettySize=auto;html=1;entryX=0;entryY=0.5;entryDx=0;entryDy=0;fillColor=#a20025;strokeColor=#6F0000;" parent="1" source="M4qcc3BLTqc3jIXUVcVV-6" target="M4qcc3BLTqc3jIXUVcVV-13" edge="1">
          <mxGeometry relative="1" as="geometry">
            <Array as="points">
              <mxPoint x="550" y="870" />
              <mxPoint x="550" y="690" />
            </Array>
          </mxGeometry>
        </mxCell>
        <mxCell id="M4qcc3BLTqc3jIXUVcVV-17" style="edgeStyle=orthogonalEdgeStyle;rounded=0;orthogonalLoop=1;jettySize=auto;html=1;entryX=0;entryY=0.5;entryDx=0;entryDy=0;fillColor=#008a00;strokeColor=#005700;" parent="1" source="M4qcc3BLTqc3jIXUVcVV-6" target="M4qcc3BLTqc3jIXUVcVV-12" edge="1">
          <mxGeometry relative="1" as="geometry" />
        </mxCell>
        <mxCell id="M4qcc3BLTqc3jIXUVcVV-31" style="edgeStyle=orthogonalEdgeStyle;rounded=0;orthogonalLoop=1;jettySize=auto;html=1;entryX=0;entryY=0.5;entryDx=0;entryDy=0;" parent="1" source="M4qcc3BLTqc3jIXUVcVV-6" target="M4qcc3BLTqc3jIXUVcVV-27" edge="1">
          <mxGeometry relative="1" as="geometry" />
        </mxCell>
        <mxCell id="M4qcc3BLTqc3jIXUVcVV-6" value="Clasificacion&amp;nbsp;" style="rounded=0;whiteSpace=wrap;html=1;" parent="1" vertex="1">
          <mxGeometry x="410" y="820" width="120" height="100" as="geometry" />
        </mxCell>
        <mxCell id="M4qcc3BLTqc3jIXUVcVV-23" style="edgeStyle=orthogonalEdgeStyle;rounded=0;orthogonalLoop=1;jettySize=auto;html=1;entryX=0;entryY=0.5;entryDx=0;entryDy=0;" parent="1" source="M4qcc3BLTqc3jIXUVcVV-7" target="M4qcc3BLTqc3jIXUVcVV-22" edge="1">
          <mxGeometry relative="1" as="geometry">
            <Array as="points">
              <mxPoint x="520" y="745" />
              <mxPoint x="520" y="650" />
            </Array>
          </mxGeometry>
        </mxCell>
        <mxCell id="M4qcc3BLTqc3jIXUVcVV-7" value="Arimas" style="rounded=0;whiteSpace=wrap;html=1;" parent="1" vertex="1">
          <mxGeometry x="435" y="730" width="70" height="30" as="geometry" />
        </mxCell>
        <mxCell id="M4qcc3BLTqc3jIXUVcVV-40" style="edgeStyle=orthogonalEdgeStyle;rounded=0;orthogonalLoop=1;jettySize=auto;html=1;entryX=0;entryY=0.5;entryDx=0;entryDy=0;" parent="1" source="M4qcc3BLTqc3jIXUVcVV-12" target="M4qcc3BLTqc3jIXUVcVV-39" edge="1">
          <mxGeometry relative="1" as="geometry">
            <Array as="points">
              <mxPoint x="1005" y="840" />
              <mxPoint x="1005" y="850" />
              <mxPoint x="1290" y="850" />
            </Array>
          </mxGeometry>
        </mxCell>
        <mxCell id="M4qcc3BLTqc3jIXUVcVV-12" value="Boosting" style="rounded=0;whiteSpace=wrap;html=1;" parent="1" vertex="1">
          <mxGeometry x="600" y="810" width="120" height="60" as="geometry" />
        </mxCell>
        <mxCell id="M4qcc3BLTqc3jIXUVcVV-25" style="edgeStyle=orthogonalEdgeStyle;rounded=0;orthogonalLoop=1;jettySize=auto;html=1;entryX=0;entryY=0.5;entryDx=0;entryDy=0;" parent="1" source="M4qcc3BLTqc3jIXUVcVV-13" target="M4qcc3BLTqc3jIXUVcVV-24" edge="1">
          <mxGeometry relative="1" as="geometry" />
        </mxCell>
        <mxCell id="M4qcc3BLTqc3jIXUVcVV-13" value="&#xa;&lt;span style=&quot;color: rgb(255, 255, 255); font-family: Helvetica; font-size: 12px; font-style: normal; font-variant-ligatures: normal; font-variant-caps: normal; font-weight: 400; letter-spacing: normal; orphans: 2; text-align: center; text-indent: 0px; text-transform: none; widows: 2; word-spacing: 0px; -webkit-text-stroke-width: 0px; white-space: normal; background-color: rgb(27, 29, 30); text-decoration-thickness: initial; text-decoration-style: initial; text-decoration-color: initial; display: inline !important; float: none;&quot;&gt;Baggin&amp;nbsp;&lt;/span&gt;&#xa;&#xa;" style="rounded=0;whiteSpace=wrap;html=1;" parent="1" vertex="1">
          <mxGeometry x="600" y="715" width="120" height="60" as="geometry" />
        </mxCell>
        <mxCell id="M4qcc3BLTqc3jIXUVcVV-21" style="edgeStyle=orthogonalEdgeStyle;rounded=0;orthogonalLoop=1;jettySize=auto;html=1;" parent="1" source="M4qcc3BLTqc3jIXUVcVV-18" target="M4qcc3BLTqc3jIXUVcVV-20" edge="1">
          <mxGeometry relative="1" as="geometry" />
        </mxCell>
        <mxCell id="M4qcc3BLTqc3jIXUVcVV-18" value="Hiper plano optimo" style="rounded=0;whiteSpace=wrap;html=1;" parent="1" vertex="1">
          <mxGeometry x="600" y="890" width="120" height="60" as="geometry" />
        </mxCell>
        <mxCell id="M4qcc3BLTqc3jIXUVcVV-20" value="&lt;p&gt;SVC&lt;/p&gt;&lt;p&gt;LinearSVC&lt;/p&gt;&lt;p&gt;NuSVC&lt;/p&gt;&lt;p&gt;NUSVR&lt;/p&gt;" style="rounded=1;whiteSpace=wrap;html=1;" parent="1" vertex="1">
          <mxGeometry x="1090" y="860" width="130" height="140" as="geometry" />
        </mxCell>
        <mxCell id="M4qcc3BLTqc3jIXUVcVV-22" value="ARIMA&lt;br&gt;SARIMA&lt;br&gt;SARIMAX" style="rounded=1;whiteSpace=wrap;html=1;" parent="1" vertex="1">
          <mxGeometry x="780" y="620" width="120" height="60" as="geometry" />
        </mxCell>
        <mxCell id="M4qcc3BLTqc3jIXUVcVV-24" value="Random Forest Clasifier&#xa;Random Forest Regressor&#xa;Bagging Clasifier&#xa;Bagging Regresor&#xa;ExtraTreesClasifier&#xa;ExtraTreesRegresor" style="rounded=0;whiteSpace=wrap;html=1;" parent="1" vertex="1">
          <mxGeometry x="1040" y="645" width="190" height="180" as="geometry" />
        </mxCell>
        <mxCell id="M4qcc3BLTqc3jIXUVcVV-28" style="edgeStyle=orthogonalEdgeStyle;rounded=0;orthogonalLoop=1;jettySize=auto;html=1;" parent="1" source="M4qcc3BLTqc3jIXUVcVV-27" target="M4qcc3BLTqc3jIXUVcVV-29" edge="1">
          <mxGeometry relative="1" as="geometry">
            <mxPoint x="859.9999999999995" y="1090" as="targetPoint" />
          </mxGeometry>
        </mxCell>
        <mxCell id="M4qcc3BLTqc3jIXUVcVV-27" value="Lineales" style="rounded=0;whiteSpace=wrap;html=1;" parent="1" vertex="1">
          <mxGeometry x="590" y="1010" width="120" height="60" as="geometry" />
        </mxCell>
        <mxCell id="M4qcc3BLTqc3jIXUVcVV-29" value="&lt;div&gt;LinearRegression&lt;/div&gt;&lt;div&gt;Ridge&lt;/div&gt;&lt;div&gt;Lasso&lt;/div&gt;&lt;div&gt;ElasticNet&lt;/div&gt;&lt;div&gt;LogisticRegression&amp;nbsp;&lt;/div&gt;&lt;div&gt;SGDRegressor&lt;/div&gt;&lt;div&gt;SGDClassifier&amp;nbsp;&lt;/div&gt;&lt;div&gt;Perceptron&amp;nbsp;&lt;/div&gt;&lt;div&gt;PassiveAggressiveClassifier&amp;nbsp;&lt;/div&gt;&lt;div&gt;PassiveAggressiveRegressor&lt;/div&gt;" style="rounded=1;whiteSpace=wrap;html=1;" parent="1" vertex="1">
          <mxGeometry x="1030" y="1100" width="210" height="200" as="geometry" />
        </mxCell>
        <mxCell id="M4qcc3BLTqc3jIXUVcVV-36" style="edgeStyle=orthogonalEdgeStyle;rounded=0;orthogonalLoop=1;jettySize=auto;html=1;entryX=0;entryY=0.5;entryDx=0;entryDy=0;" parent="1" source="M4qcc3BLTqc3jIXUVcVV-33" target="M4qcc3BLTqc3jIXUVcVV-35" edge="1">
          <mxGeometry relative="1" as="geometry" />
        </mxCell>
        <mxCell id="M4qcc3BLTqc3jIXUVcVV-33" value="Ruido gaussiano&amp;nbsp;" style="rounded=0;whiteSpace=wrap;html=1;" parent="1" vertex="1">
          <mxGeometry x="585" y="1150" width="120" height="60" as="geometry" />
        </mxCell>
        <mxCell id="M4qcc3BLTqc3jIXUVcVV-35" value="Gaussian Naive Bayes" style="rounded=0;whiteSpace=wrap;html=1;" parent="1" vertex="1">
          <mxGeometry x="827" y="1150" width="120" height="60" as="geometry" />
        </mxCell>
        <mxCell id="M4qcc3BLTqc3jIXUVcVV-37" value="&lt;div style=&quot;&quot;&gt;&lt;span style=&quot;background-color: transparent; color: light-dark(rgb(0, 0, 0), rgb(255, 255, 255));&quot;&gt;Clasificacion :&lt;/span&gt;&lt;/div&gt;&lt;ul&gt;&lt;code&gt;&lt;div style=&quot;&quot;&gt;&lt;span style=&quot;background-color: transparent; color: light-dark(rgb(0, 0, 0), rgb(255, 255, 255)); font-family: Helvetica;&quot;&gt;accuracy_score&lt;/span&gt;&lt;/div&gt;&lt;/code&gt;&lt;li style=&quot;&quot;&gt;&lt;code&gt;precision_score&lt;/code&gt;&lt;/li&gt;&lt;div style=&quot;&quot;&gt;&lt;br&gt;&lt;/div&gt;&lt;li style=&quot;&quot;&gt;&lt;code&gt;recall_score&lt;/code&gt;&lt;/li&gt;&lt;div style=&quot;&quot;&gt;&lt;br&gt;&lt;/div&gt;&lt;li style=&quot;&quot;&gt;&lt;code&gt;f1_score&lt;/code&gt;&lt;/li&gt;&lt;div style=&quot;&quot;&gt;&lt;br&gt;&lt;/div&gt;&lt;li style=&quot;&quot;&gt;&lt;code&gt;roc_auc_score&lt;/code&gt;&lt;/li&gt;&lt;div style=&quot;&quot;&gt;&lt;br&gt;&lt;/div&gt;&lt;li style=&quot;&quot;&gt;&lt;code&gt;confusion_matrix&lt;/code&gt;&lt;/li&gt;&lt;div style=&quot;&quot;&gt;&lt;br&gt;&lt;/div&gt;&lt;li style=&quot;&quot;&gt;&lt;code&gt;classification_report&lt;/code&gt;&lt;/li&gt;&lt;div style=&quot;&quot;&gt;&lt;br&gt;&lt;/div&gt;&lt;li style=&quot;&quot;&gt;&lt;code&gt;log_loss&lt;/code&gt;&lt;/li&gt;&lt;div style=&quot;&quot;&gt;&lt;br&gt;&lt;/div&gt;&lt;li style=&quot;&quot;&gt;&lt;code&gt;hinge_loss&lt;/code&gt;&lt;/li&gt;&lt;div style=&quot;&quot;&gt;&lt;br&gt;&lt;/div&gt;&lt;li style=&quot;&quot;&gt;&lt;code&gt;matthews_corrcoef&lt;/code&gt;&lt;/li&gt;&lt;div style=&quot;&quot;&gt;&lt;br&gt;&lt;/div&gt;&lt;li style=&quot;&quot;&gt;&lt;code&gt;cohen_kappa_score&lt;/code&gt;&lt;/li&gt;&lt;/ul&gt;" style="rounded=1;whiteSpace=wrap;html=1;align=left;" parent="1" vertex="1">
          <mxGeometry x="1730" y="500" width="240" height="410" as="geometry" />
        </mxCell>
        <mxCell id="M4qcc3BLTqc3jIXUVcVV-38" value="&lt;div style=&quot;text-align: left;&quot;&gt;&lt;span style=&quot;background-color: transparent; color: light-dark(rgb(0, 0, 0), rgb(255, 255, 255));&quot;&gt;Regresion:&lt;/span&gt;&lt;/div&gt;&lt;div style=&quot;text-align: left;&quot;&gt;&lt;code style=&quot;background-color: transparent; color: light-dark(rgb(0, 0, 0), rgb(255, 255, 255));&quot;&gt;mean_squared_error&lt;/code&gt;&lt;span style=&quot;background-color: transparent; color: light-dark(rgb(0, 0, 0), rgb(255, 255, 255));&quot;&gt; (MSE)&lt;/span&gt;&lt;/div&gt;&lt;li&gt;&lt;ul&gt;&lt;li style=&quot;text-align: left;&quot;&gt;&lt;code&gt;mean_absolute_error&lt;/code&gt; (MAE)&lt;/li&gt;&lt;div style=&quot;text-align: left;&quot;&gt;&lt;br&gt;&lt;/div&gt;&lt;li style=&quot;text-align: left;&quot;&gt;&lt;code&gt;r2_score&lt;/code&gt;&lt;/li&gt;&lt;div style=&quot;text-align: left;&quot;&gt;&lt;br&gt;&lt;/div&gt;&lt;li style=&quot;text-align: left;&quot;&gt;&lt;code&gt;mean_squared_log_error&lt;/code&gt;&lt;/li&gt;&lt;div style=&quot;text-align: left;&quot;&gt;&lt;br&gt;&lt;/div&gt;&lt;li style=&quot;text-align: left;&quot;&gt;&lt;code&gt;median_absolute_error&lt;/code&gt;&lt;/li&gt;&lt;div style=&quot;text-align: left;&quot;&gt;&lt;br&gt;&lt;/div&gt;&lt;li style=&quot;text-align: left;&quot;&gt;&lt;code&gt;explained_variance_score&lt;/code&gt;&lt;/li&gt;&lt;div style=&quot;text-align: left;&quot;&gt;&lt;br&gt;&lt;/div&gt;&lt;li style=&quot;text-align: left;&quot;&gt;&lt;code&gt;max_error&lt;/code&gt;&lt;/li&gt;&lt;div style=&quot;text-align: left;&quot;&gt;|&lt;/div&gt;&lt;/ul&gt;&lt;p&gt;&lt;/p&gt;&lt;/li&gt;" style="rounded=1;whiteSpace=wrap;html=1;" parent="1" vertex="1">
          <mxGeometry x="1735" y="925" width="230" height="370" as="geometry" />
        </mxCell>
        <mxCell id="M4qcc3BLTqc3jIXUVcVV-39" value="&lt;p style=&quot;text-align: left;&quot;&gt;En &lt;code class=&quot;western&quot;&gt;scikit-learn&lt;/code&gt; (&lt;code class=&quot;western&quot;&gt;sklearn.ensemble&lt;/code&gt;)&lt;/p&gt;&lt;p style=&quot;margin-bottom: 0in&quot;&gt;&lt;/p&gt;&lt;div style=&quot;text-align: left;&quot;&gt;&lt;span style=&quot;background-color: transparent; color: light-dark(rgb(0, 0, 0), rgb(255, 255, 255));&quot;&gt;AdaBoostClassifier&lt;/span&gt;&lt;/div&gt;&lt;div style=&quot;text-align: left;&quot;&gt;&lt;span style=&quot;background-color: transparent; color: light-dark(rgb(0, 0, 0), rgb(255, 255, 255));&quot;&gt;/ &lt;/span&gt;&lt;code style=&quot;background-color: transparent; color: light-dark(rgb(0, 0, 0), rgb(255, 255, 255));&quot; class=&quot;western&quot;&gt;AdaBoostRegressor&lt;/code&gt;&lt;/div&gt;&lt;p style=&quot;margin-bottom: 0in&quot;&gt;&lt;/p&gt;&lt;div style=&quot;text-align: left;&quot;&gt;&lt;span style=&quot;background-color: transparent; color: light-dark(rgb(0, 0, 0), rgb(255, 255, 255));&quot;&gt;GradientBoostingClassifier&lt;/span&gt;&lt;/div&gt;&lt;div style=&quot;text-align: left;&quot;&gt;&lt;span style=&quot;background-color: transparent; color: light-dark(rgb(0, 0, 0), rgb(255, 255, 255));&quot;&gt;/ &lt;/span&gt;&lt;code style=&quot;background-color: transparent; color: light-dark(rgb(0, 0, 0), rgb(255, 255, 255));&quot; class=&quot;western&quot;&gt;GradientBoostingRegressor&lt;/code&gt;&lt;/div&gt;&lt;p&gt;&lt;/p&gt;&lt;div style=&quot;text-align: left;&quot;&gt;&lt;code style=&quot;background-color: transparent; color: light-dark(rgb(0, 0, 0), rgb(255, 255, 255));&quot; class=&quot;western&quot;&gt;HistGradientBoostingClassifier&lt;/code&gt;&lt;span style=&quot;background-color: transparent; color: light-dark(rgb(0, 0, 0), rgb(255, 255, 255));&quot;&gt; /&lt;/span&gt;&lt;/div&gt;&lt;code class=&quot;western&quot;&gt;&lt;div style=&quot;text-align: left;&quot;&gt;&lt;span style=&quot;background-color: transparent; color: light-dark(rgb(0, 0, 0), rgb(255, 255, 255)); font-family: Helvetica;&quot;&gt;HistGradientBoostingRegressor&lt;/span&gt;&lt;/div&gt;&lt;/code&gt;&lt;p&gt;&lt;/p&gt;&lt;div style=&quot;text-align: left;&quot;&gt;&lt;br&gt;&lt;/div&gt;&lt;p style=&quot;text-align: left;&quot;&gt; En &lt;code class=&quot;western&quot;&gt;xgboost&lt;/code&gt;&lt;/p&gt;&lt;div style=&quot;text-align: left;&quot;&gt;&lt;span style=&quot;background-color: transparent; color: light-dark(rgb(0, 0, 0), rgb(255, 255, 255));&quot;&gt;XGBClassifier&lt;/span&gt;&lt;/div&gt;&lt;p style=&quot;text-align: left;&quot;&gt;&lt;code class=&quot;western&quot;&gt;XGBRegressor&lt;/code&gt;&lt;/p&gt;&lt;p style=&quot;text-align: left;&quot;&gt;&lt;br&gt;&lt;/p&gt;&lt;p style=&quot;text-align: left;&quot;&gt; En &lt;code class=&quot;western&quot;&gt;lightgbm&lt;/code&gt;&lt;/p&gt;&lt;p style=&quot;text-align: left; margin-bottom: 0in;&quot;&gt;&lt;code class=&quot;western&quot;&gt;LGBMClassifier&lt;/code&gt;&lt;/p&gt;&lt;p style=&quot;text-align: left;&quot;&gt;&lt;code class=&quot;western&quot;&gt;LGBMRegressor&lt;/code&gt;&lt;/p&gt;&lt;p style=&quot;text-align: left;&quot;&gt;&lt;br&gt;&lt;/p&gt;&lt;p style=&quot;text-align: left;&quot;&gt;En &lt;code class=&quot;western&quot;&gt;catboost&lt;/code&gt;&lt;/p&gt;&lt;p style=&quot;text-align: left; margin-bottom: 0in;&quot;&gt;&lt;code class=&quot;western&quot;&gt;CatBoostClassifier&lt;/code&gt;&lt;br&gt;&lt;/p&gt;&lt;div style=&quot;text-align: left;&quot;&gt;&lt;br&gt;&lt;/div&gt;&lt;p style=&quot;text-align: left;&quot;&gt;&lt;code class=&quot;western&quot;&gt;CatBoostRegressor&lt;/code&gt; &lt;br&gt;&lt;/p&gt;" style="rounded=1;whiteSpace=wrap;html=1;" parent="1" vertex="1">
          <mxGeometry x="1324" y="700" width="330" height="520" as="geometry" />
        </mxCell>
      </root>
    </mxGraphModel>
  </diagram>
</mxfile>
